<svg width="92" height="50" viewBox="0 0 92 50" fill="none" xmlns="http://www.w3.org/2000/svg">
<path d="M27.55 49V27.1H30.85V49H27.55Z" fill="white"/>
<path d="M27.55 49H26.55V50H27.55V49ZM27.55 27.1V26.1H26.55V27.1H27.55ZM30.85 27.1H31.85V26.1H30.85V27.1ZM30.85 49V50H31.85V49H30.85ZM28.55 49V27.1H26.55V49H28.55ZM27.55 28.1H30.85V26.1H27.55V28.1ZM29.85 27.1V49H31.85V27.1H29.85ZM30.85 48H27.55V50H30.85V48Z" fill="#3F98E1"/>
<path d="M37.32 49.3C35.44 49.3 34.06 48.79 33.18 47.77C32.3 46.75 31.86 45.16 31.86 43V33.4H35.1V42.4C35.1 43.84 35.34 44.9 35.82 45.58C36.32 46.26 37.12 46.6 38.22 46.6C39.04 46.6 39.76 46.43 40.38 46.09C41.02 45.75 41.52 45.29 41.88 44.71C42.24 44.11 42.42 43.44 42.42 42.7V33.4H45.66V49H42.57L42.54 47.14H42.48C41.86 47.86 41.13 48.4 40.29 48.76C39.45 49.12 38.46 49.3 37.32 49.3Z" fill="white"/>
<path d="M33.18 47.77L32.4228 48.4232L33.18 47.77ZM31.86 33.4V32.4H30.86V33.4H31.86ZM35.1 33.4H36.1V32.4H35.1V33.4ZM35.82 45.58L35.003 46.1567L35.0086 46.1646L35.0143 46.1724L35.82 45.58ZM40.38 46.09L39.9108 45.2068L39.8992 45.2132L40.38 46.09ZM41.88 44.71L42.7296 45.2374L42.7336 45.231L42.7375 45.2245L41.88 44.71ZM42.42 33.4V32.4H41.42V33.4H42.42ZM45.66 33.4H46.66V32.4H45.66V33.4ZM45.66 49V50H46.66V49H45.66ZM42.57 49L41.5701 49.0161L41.586 50H42.57V49ZM42.54 47.14L43.5399 47.1239L43.524 46.14H42.54V47.14ZM42.48 47.14V46.14H42.0214L41.7222 46.4875L42.48 47.14ZM40.29 48.76L39.8961 47.8409L40.29 48.76ZM37.32 48.3C35.6111 48.3 34.5609 47.8398 33.9372 47.1168L32.4228 48.4232C33.5591 49.7402 35.2689 50.3 37.32 50.3V48.3ZM33.9372 47.1168C33.2844 46.3601 32.86 45.0564 32.86 43H30.86C30.86 45.2636 31.3156 47.1399 32.4228 48.4232L33.9372 47.1168ZM32.86 43V33.4H30.86V43H32.86ZM31.86 34.4H35.1V32.4H31.86V34.4ZM34.1 33.4V42.4H36.1V33.4H34.1ZM34.1 42.4C34.1 43.9124 34.3448 45.2242 35.003 46.1567L36.637 45.0033C36.3352 44.5758 36.1 43.7676 36.1 42.4H34.1ZM35.0143 46.1724C35.7578 47.1834 36.9078 47.6 38.22 47.6V45.6C37.3322 45.6 36.8822 45.3366 36.6257 44.9876L35.0143 46.1724ZM38.22 47.6C39.1811 47.6 40.0714 47.3997 40.8608 46.9668L39.8992 45.2132C39.4486 45.4603 38.8989 45.6 38.22 45.6V47.6ZM40.8492 46.9731C41.6352 46.5555 42.2707 45.9768 42.7296 45.2374L41.0304 44.1826C40.7693 44.6032 40.4048 44.9445 39.9108 45.2069L40.8492 46.9731ZM42.7375 45.2245C43.1962 44.46 43.42 43.6104 43.42 42.7H41.42C41.42 43.2696 41.2838 43.76 41.0225 44.1955L42.7375 45.2245ZM43.42 42.7V33.4H41.42V42.7H43.42ZM42.42 34.4H45.66V32.4H42.42V34.4ZM44.66 33.4V49H46.66V33.4H44.66ZM45.66 48H42.57V50H45.66V48ZM43.5699 48.9839L43.5399 47.1239L41.5401 47.1561L41.5701 49.0161L43.5699 48.9839ZM42.54 46.14H42.48V48.14H42.54V46.14ZM41.7222 46.4875C41.1976 47.0968 40.5905 47.5433 39.8961 47.8409L40.6839 49.6791C41.6695 49.2567 42.5224 48.6232 43.2378 47.7925L41.7222 46.4875ZM39.8961 47.8409C39.2073 48.1361 38.357 48.3 37.32 48.3V50.3C38.563 50.3 39.6927 50.1039 40.6839 49.6791L39.8961 47.8409Z" fill="#3F98E1"/>
<path d="M84.38 49.3C83.68 49.3 82.95 49.25 82.19 49.15C81.45 49.07 80.74 48.95 80.06 48.79C79.38 48.61 78.78 48.41 78.26 48.19L78.71 45.55C79.59 45.87 80.48 46.13 81.38 46.33C82.28 46.51 83.17 46.6 84.05 46.6C85.21 46.6 86.07 46.44 86.63 46.12C87.21 45.78 87.5 45.28 87.5 44.62C87.5 44.24 87.4 43.93 87.2 43.69C87 43.43 86.65 43.2 86.15 43C85.65 42.78 84.96 42.57 84.08 42.37C82.88 42.07 81.83 41.72 80.93 41.32C80.05 40.92 79.37 40.41 78.89 39.79C78.41 39.17 78.17 38.39 78.17 37.45C78.17 36.03 78.71 34.95 79.79 34.21C80.89 33.47 82.47 33.1 84.53 33.1C85.49 33.1 86.47 33.18 87.47 33.34C88.49 33.5 89.42 33.73 90.26 34.03L89.78 36.67C88.98 36.37 88.17 36.15 87.35 36.01C86.55 35.87 85.74 35.8 84.92 35.8C83.74 35.8 82.86 35.95 82.28 36.25C81.72 36.53 81.44 36.96 81.44 37.54C81.44 37.88 81.53 38.17 81.71 38.41C81.91 38.65 82.25 38.87 82.73 39.07C83.21 39.27 83.88 39.47 84.74 39.67C85.62 39.87 86.42 40.11 87.14 40.39C87.88 40.67 88.52 41.01 89.06 41.41C89.6 41.79 90.02 42.25 90.32 42.79C90.62 43.33 90.77 43.97 90.77 44.71C90.77 45.67 90.51 46.49 89.99 47.17C89.49 47.85 88.76 48.38 87.8 48.76C86.86 49.12 85.72 49.3 84.38 49.3Z" fill="white"/>
<path d="M82.19 49.15L82.3205 48.1585L82.309 48.157L82.2975 48.1558L82.19 49.15ZM80.06 48.79L79.8041 49.7567L79.8175 49.7602L79.831 49.7634L80.06 48.79ZM78.26 48.19L77.2742 48.022L77.1412 48.8025L77.8704 49.111L78.26 48.19ZM78.71 45.55L79.0517 44.6102L77.9256 44.2007L77.7242 45.382L78.71 45.55ZM81.38 46.33L81.1631 47.3062L81.1735 47.3085L81.1839 47.3106L81.38 46.33ZM86.63 46.12L87.1262 46.9883L87.1357 46.9827L86.63 46.12ZM87.2 43.69L86.4074 44.2997L86.4193 44.3152L86.4318 44.3302L87.2 43.69ZM86.15 43L85.7473 43.9153L85.7628 43.9222L85.7786 43.9285L86.15 43ZM84.08 42.37L83.8375 43.3401L83.8479 43.3427L83.8584 43.3451L84.08 42.37ZM80.93 41.32L80.5162 42.2304L80.5239 42.2338L80.93 41.32ZM78.89 39.79L78.0993 40.4022L78.0993 40.4022L78.89 39.79ZM79.79 34.21L79.2318 33.3802L79.2248 33.3851L79.79 34.21ZM87.47 33.34L87.312 34.3274L87.315 34.3279L87.47 33.34ZM90.26 34.03L91.2439 34.2089L91.3957 33.3737L90.5963 33.0883L90.26 34.03ZM89.78 36.67L89.4289 37.6063L90.5497 38.0266L90.7639 36.8489L89.78 36.67ZM87.35 36.01L87.1776 36.995L87.1817 36.9957L87.35 36.01ZM82.28 36.25L82.7273 37.1445L82.7394 37.1382L82.28 36.25ZM81.71 38.41L80.91 39.01L80.9254 39.0305L80.9418 39.0502L81.71 38.41ZM82.73 39.07L83.1146 38.1469L83.1146 38.1469L82.73 39.07ZM84.74 39.67L84.5135 40.644L84.5184 40.6451L84.74 39.67ZM87.14 40.39L86.7775 41.322L86.7861 41.3253L87.14 40.39ZM89.06 41.41L88.4648 42.2136L88.4746 42.2208L88.4845 42.2278L89.06 41.41ZM90.32 42.79L91.1942 42.3044L91.1942 42.3044L90.32 42.79ZM89.99 47.17L89.1956 46.5625L89.1899 46.57L89.1843 46.5776L89.99 47.17ZM87.8 48.76L88.1577 49.6939L88.168 49.6898L87.8 48.76ZM84.38 48.3C83.7275 48.3 83.0412 48.2534 82.3205 48.1585L82.0595 50.1415C82.8588 50.2466 83.6325 50.3 84.38 50.3V48.3ZM82.2975 48.1558C81.5957 48.0799 80.9265 47.9666 80.289 47.8166L79.831 49.7634C80.5535 49.9334 81.3043 50.0601 82.0825 50.1442L82.2975 48.1558ZM80.3159 47.8233C79.6709 47.6526 79.1172 47.4668 78.6496 47.269L77.8704 49.111C78.4428 49.3532 79.0891 49.5674 79.8041 49.7567L80.3159 47.8233ZM79.2458 48.358L79.6958 45.718L77.7242 45.382L77.2742 48.022L79.2458 48.358ZM78.3683 46.4898C79.2884 46.8244 80.2201 47.0966 81.1631 47.3062L81.5969 45.3538C80.7399 45.1634 79.8916 44.9156 79.0517 44.6102L78.3683 46.4898ZM81.1839 47.3106C82.1457 47.5029 83.1014 47.6 84.05 47.6V45.6C83.2386 45.6 82.4143 45.5171 81.5761 45.3494L81.1839 47.3106ZM84.05 47.6C85.2649 47.6 86.3374 47.4389 87.1261 46.9882L86.1339 45.2518C85.8026 45.4411 85.1551 45.6 84.05 45.6V47.6ZM87.1357 46.9827C88.0148 46.4673 88.5 45.643 88.5 44.62H86.5C86.5 44.917 86.4052 45.0927 86.1243 45.2573L87.1357 46.9827ZM88.5 44.62C88.5 44.0586 88.3485 43.5061 87.9682 43.0498L86.4318 44.3302C86.4515 44.3539 86.5 44.4214 86.5 44.62H88.5ZM87.9926 43.0803C87.6342 42.6143 87.0923 42.2999 86.5214 42.0715L85.7786 43.9285C86.2077 44.1001 86.3658 44.2457 86.4074 44.2997L87.9926 43.0803ZM86.5527 42.0847C85.9691 41.8279 85.2092 41.6011 84.3016 41.3949L83.8584 43.3451C84.7108 43.5389 85.3309 43.7321 85.7473 43.9153L86.5527 42.0847ZM84.3225 41.3999C83.1651 41.1105 82.172 40.7777 81.3361 40.4062L80.5239 42.2338C81.488 42.6623 82.5949 43.0295 83.8375 43.3401L84.3225 41.3999ZM81.3438 40.4096C80.5779 40.0615 80.0406 39.6427 79.6807 39.1778L78.0993 40.4022C78.6994 41.1773 79.5221 41.7785 80.5162 42.2304L81.3438 40.4096ZM79.6807 39.1778C79.3618 38.7659 79.17 38.2139 79.17 37.45H77.17C77.17 38.5661 77.4582 39.5741 78.0993 40.4022L79.6807 39.1778ZM79.17 37.45C79.17 36.327 79.5734 35.5706 80.3552 35.0349L79.2248 33.3851C77.8466 34.3294 77.17 35.733 77.17 37.45H79.17ZM80.3482 35.0397C81.2151 34.4565 82.5669 34.1 84.53 34.1V32.1C82.3731 32.1 80.5649 32.4835 79.2318 33.3803L80.3482 35.0397ZM84.53 34.1C85.4343 34.1 86.3614 34.1753 87.312 34.3274L87.628 32.3526C86.5786 32.1847 85.5457 32.1 84.53 32.1V34.1ZM87.315 34.3279C88.2827 34.4797 89.1509 34.6957 89.9237 34.9717L90.5963 33.0883C89.6891 32.7643 88.6973 32.5203 87.625 32.3521L87.315 34.3279ZM89.2761 33.8511L88.7961 36.4911L90.7639 36.8489L91.2439 34.2089L89.2761 33.8511ZM90.1311 35.7337C89.2735 35.4121 88.4023 35.1752 87.5183 35.0243L87.1817 36.9957C87.9377 37.1248 88.6865 37.3279 89.4289 37.6063L90.1311 35.7337ZM87.5224 35.025C86.6649 34.8749 85.7972 34.8 84.92 34.8V36.8C85.6828 36.8 86.4351 36.8651 87.1776 36.995L87.5224 35.025ZM84.92 34.8C83.6896 34.8 82.6154 34.9507 81.8206 35.3618L82.7394 37.1382C83.1046 36.9493 83.7904 36.8 84.92 36.8V34.8ZM81.8328 35.3556C81.4287 35.5576 81.0682 35.8433 80.812 36.2368C80.5529 36.6347 80.44 37.0823 80.44 37.54H82.44C82.44 37.4177 82.4671 37.3603 82.488 37.3282C82.5118 37.2917 82.5713 37.2224 82.7272 37.1444L81.8328 35.3556ZM80.44 37.54C80.44 38.0662 80.5832 38.5742 80.91 39.01L82.51 37.81C82.4768 37.7658 82.44 37.6938 82.44 37.54H80.44ZM80.9418 39.0502C81.292 39.4704 81.8036 39.7673 82.3454 39.9931L83.1146 38.1469C82.6964 37.9727 82.528 37.8296 82.4782 37.7698L80.9418 39.0502ZM82.3454 39.9931C82.8998 40.2241 83.6312 40.4388 84.5135 40.644L84.9665 38.696C84.1288 38.5012 83.5202 38.3159 83.1146 38.1469L82.3454 39.9931ZM84.5184 40.6451C85.3582 40.836 86.1102 41.0625 86.7776 41.322L87.5024 39.458C86.7298 39.1575 85.8818 38.904 84.9616 38.6949L84.5184 40.6451ZM86.7861 41.3253C87.4548 41.5783 88.0105 41.8771 88.4648 42.2136L89.6552 40.6064C89.0295 40.1429 88.3052 39.7617 87.4939 39.4547L86.7861 41.3253ZM88.4845 42.2278C88.9099 42.5271 89.2241 42.8764 89.4458 43.2756L91.1942 42.3044C90.8159 41.6236 90.2901 41.0529 89.6355 40.5922L88.4845 42.2278ZM89.4458 43.2756C89.6484 43.6403 89.77 44.1064 89.77 44.71H91.77C91.77 43.8336 91.5916 43.0197 91.1942 42.3044L89.4458 43.2756ZM89.77 44.71C89.77 45.4785 89.5662 46.078 89.1956 46.5625L90.7844 47.7774C91.4538 46.902 91.77 45.8615 91.77 44.71H89.77ZM89.1843 46.5776C88.8182 47.0756 88.2564 47.5039 87.432 47.8302L88.168 49.6898C89.2636 49.2561 90.1618 48.6244 90.7957 47.7624L89.1843 46.5776ZM87.4424 47.8261C86.6474 48.1306 85.6359 48.3 84.38 48.3V50.3C85.8041 50.3 87.0726 50.1094 88.1576 49.6939L87.4424 47.8261Z" fill="#3F98E1"/>
<path d="M66.97 49.3C65.41 49.3 64.18 48.88 63.28 48.04C62.38 47.18 61.93 46.02 61.93 44.56C61.93 42.74 62.65 41.34 64.09 40.36C65.53 39.36 67.58 38.86 70.24 38.86H72.49C72.49 38.06 72.39 37.44 72.19 37C71.99 36.56 71.64 36.25 71.14 36.07C70.66 35.89 69.99 35.8 69.13 35.8C68.11 35.8 67.07 35.9 66.01 36.1C64.97 36.3 63.98 36.6 63.04 37L62.59 34.33C63.59 33.95 64.69 33.65 65.89 33.43C67.11 33.21 68.33 33.1 69.55 33.1C71.11 33.1 72.33 33.29 73.21 33.67C74.11 34.05 74.75 34.69 75.13 35.59C75.53 36.49 75.73 37.68 75.73 39.16V49H72.64L72.61 47.2H72.55C72.01 47.82 71.21 48.33 70.15 48.73C69.11 49.11 68.05 49.3 66.97 49.3ZM68.11 46.66C68.91 46.66 69.64 46.51 70.3 46.21C70.98 45.91 71.51 45.51 71.89 45.01C72.29 44.51 72.49 43.95 72.49 43.33V41.32H70.69C68.85 41.32 67.47 41.56 66.55 42.04C65.63 42.52 65.17 43.25 65.17 44.23C65.17 44.99 65.42 45.59 65.92 46.03C66.44 46.45 67.17 46.66 68.11 46.66Z" fill="white"/>
<path d="M63.28 48.04L62.5891 48.763L62.5977 48.7711L63.28 48.04ZM64.09 40.36L64.6526 41.1867L64.6604 41.1814L64.09 40.36ZM72.49 38.86V39.86H73.49V38.86H72.49ZM72.19 37L73.1004 36.5862L73.1004 36.5862L72.19 37ZM71.14 36.07L70.7888 37.0064L70.8013 37.0109L71.14 36.07ZM66.01 36.1L65.8246 35.1173L65.8212 35.118L66.01 36.1ZM63.04 37L62.0539 37.1662L62.2647 38.4167L63.4316 37.9202L63.04 37ZM62.59 34.33L62.2348 33.3952L61.4675 33.6868L61.6039 34.4962L62.59 34.33ZM65.89 33.43L65.7125 32.4459L65.7097 32.4464L65.89 33.43ZM73.21 33.67L72.8136 34.5881L72.821 34.5912L73.21 33.67ZM75.13 35.59L74.2088 35.979L74.2124 35.9876L74.2162 35.9961L75.13 35.59ZM75.73 49V50H76.73V49H75.73ZM72.64 49L71.6401 49.0167L71.6565 50H72.64V49ZM72.61 47.2L73.6099 47.1833L73.5935 46.2H72.61V47.2ZM72.55 47.2V46.2H72.0949L71.7959 46.5432L72.55 47.2ZM70.15 48.73L70.4932 49.6693L70.5031 49.6656L70.15 48.73ZM70.3 46.21L69.8963 45.295L69.8862 45.2996L70.3 46.21ZM71.89 45.01L71.1091 44.3853L71.1014 44.395L71.0938 44.4049L71.89 45.01ZM72.49 41.32H73.49V40.32H72.49V41.32ZM66.55 42.04L66.0874 41.1534L66.0874 41.1534L66.55 42.04ZM65.92 46.03L65.2594 46.7807L65.2752 46.7947L65.2917 46.8079L65.92 46.03ZM66.97 48.3C65.5929 48.3 64.6314 47.9334 63.9623 47.3089L62.5977 48.7711C63.7286 49.8266 65.2271 50.3 66.97 50.3V48.3ZM63.9709 47.317C63.3025 46.6784 62.93 45.7982 62.93 44.56H60.93C60.93 46.2418 61.4575 47.6816 62.5891 48.763L63.9709 47.317ZM62.93 44.56C62.93 43.0533 63.5006 41.9708 64.6526 41.1867L63.5274 39.5333C61.7994 40.7092 60.93 42.4267 60.93 44.56H62.93ZM64.6604 41.1814C65.8668 40.3436 67.685 39.86 70.24 39.86V37.86C67.475 37.86 65.1932 38.3764 63.5196 39.5386L64.6604 41.1814ZM70.24 39.86H72.49V37.86H70.24V39.86ZM73.49 38.86C73.49 37.999 73.3859 37.2143 73.1004 36.5862L71.2796 37.4138C71.3941 37.6657 71.49 38.121 71.49 38.86H73.49ZM73.1004 36.5862C72.777 35.8749 72.2047 35.3905 71.4787 35.1291L70.8013 37.0109C71.0753 37.1095 71.203 37.2451 71.2796 37.4138L73.1004 36.5862ZM71.4911 35.1337C70.848 34.8925 70.0399 34.8 69.13 34.8V36.8C69.9401 36.8 70.472 36.8875 70.7889 37.0063L71.4911 35.1337ZM69.13 34.8C68.0443 34.8 66.9422 34.9065 65.8246 35.1173L66.1954 37.0827C67.1978 36.8935 68.1757 36.8 69.13 36.8V34.8ZM65.8212 35.118C64.7141 35.3309 63.656 35.6511 62.6484 36.0798L63.4316 37.9202C64.304 37.5489 65.2259 37.2691 66.1988 37.082L65.8212 35.118ZM64.0261 36.8338L63.5761 34.1638L61.6039 34.4962L62.0539 37.1662L64.0261 36.8338ZM62.9452 35.2648C63.8813 34.9091 64.9218 34.6242 66.0703 34.4136L65.7097 32.4464C64.4582 32.6758 63.2987 32.9909 62.2348 33.3952L62.9452 35.2648ZM66.0675 34.4141C67.2298 34.2045 68.3905 34.1 69.55 34.1V32.1C68.2695 32.1 66.9902 32.2155 65.7125 32.4459L66.0675 34.4141ZM69.55 34.1C71.0488 34.1 72.113 34.2855 72.8136 34.5881L73.6064 32.7519C72.547 32.2944 71.1712 32.1 69.55 32.1V34.1ZM72.821 34.5912C73.481 34.8699 73.9301 35.319 74.2088 35.979L76.0513 35.201C75.5699 34.061 74.739 33.2301 73.599 32.7487L72.821 34.5912ZM74.2162 35.9961C74.5382 36.7206 74.73 37.756 74.73 39.16H76.73C76.73 37.604 76.5218 36.2594 76.0438 35.1839L74.2162 35.9961ZM74.73 39.16V49H76.73V39.16H74.73ZM75.73 48H72.64V50H75.73V48ZM73.6399 48.9833L73.6099 47.1833L71.6101 47.2167L71.6401 49.0167L73.6399 48.9833ZM72.61 46.2H72.55V48.2H72.61V46.2ZM71.7959 46.5432C71.3977 47.0004 70.7578 47.4318 69.7969 47.7944L70.5031 49.6656C71.6622 49.2282 72.6223 48.6396 73.3041 47.8568L71.7959 46.5432ZM69.8068 47.7907C68.8739 48.1316 67.93 48.3 66.97 48.3V50.3C68.17 50.3 69.3461 50.0884 70.4932 49.6693L69.8068 47.7907ZM68.11 47.66C69.0379 47.66 69.9109 47.4853 70.7138 47.1204L69.8862 45.2996C69.3691 45.5347 68.7821 45.66 68.11 45.66V47.66ZM70.7036 47.1249C71.5101 46.7691 72.1864 46.2727 72.6862 45.6151L71.0938 44.4049C70.8336 44.7473 70.4499 45.0509 69.8964 45.2951L70.7036 47.1249ZM72.6709 45.6347C73.2077 44.9637 73.49 44.185 73.49 43.33H71.49C71.49 43.715 71.3723 44.0563 71.1091 44.3853L72.6709 45.6347ZM73.49 43.33V41.32H71.49V43.33H73.49ZM72.49 40.32H70.69V42.32H72.49V40.32ZM70.69 40.32C68.7956 40.32 67.2217 40.5616 66.0874 41.1534L67.0126 42.9266C67.7183 42.5584 68.9044 42.32 70.69 42.32V40.32ZM66.0874 41.1534C65.5024 41.4586 65.0107 41.872 64.669 42.4144C64.3252 42.9599 64.17 43.5776 64.17 44.23H66.17C66.17 43.9024 66.2448 43.6651 66.361 43.4806C66.4793 43.293 66.6776 43.1014 67.0126 42.9266L66.0874 41.1534ZM64.17 44.23C64.17 45.2324 64.512 46.123 65.2594 46.7807L66.5806 45.2793C66.328 45.057 66.17 44.7476 66.17 44.23H64.17ZM65.2917 46.8079C66.0496 47.4201 67.0327 47.66 68.11 47.66V45.66C67.3073 45.66 66.8304 45.4799 66.5483 45.2521L65.2917 46.8079Z" fill="#3F98E1"/>
<path d="M54.6 49.3C52.84 49.3 51.33 48.98 50.07 48.34C48.81 47.7 47.84 46.78 47.16 45.58C46.5 44.36 46.17 42.9 46.17 41.2C46.17 39.5 46.5 38.05 47.16 36.85C47.84 35.63 48.81 34.7 50.07 34.06C51.33 33.42 52.84 33.1 54.6 33.1C55.48 33.1 56.31 33.19 57.09 33.37C57.87 33.53 58.63 33.81 59.37 34.21L58.8 36.82C58.12 36.46 57.45 36.2 56.79 36.04C56.13 35.88 55.47 35.8 54.81 35.8C53.11 35.8 51.79 36.27 50.85 37.21C49.93 38.15 49.47 39.48 49.47 41.2C49.47 42.9 49.93 44.23 50.85 45.19C51.79 46.13 53.11 46.6 54.81 46.6C55.47 46.6 56.13 46.52 56.79 46.36C57.45 46.2 58.12 45.94 58.8 45.58L59.37 48.19C58.63 48.57 57.87 48.85 57.09 49.03C56.31 49.21 55.48 49.3 54.6 49.3Z" fill="white"/>
<path d="M50.07 48.34L50.5229 47.4484L50.5229 47.4484L50.07 48.34ZM47.16 45.58L46.2805 46.0558L46.2851 46.0645L46.29 46.073L47.16 45.58ZM47.16 36.85L46.2865 36.3631L46.2838 36.3681L47.16 36.85ZM50.07 34.06L50.5229 34.9516L50.5229 34.9516L50.07 34.06ZM57.09 33.37L56.8651 34.3444L56.8771 34.3471L56.8891 34.3496L57.09 33.37ZM59.37 34.21L60.347 34.4234L60.5075 33.6881L59.8455 33.3303L59.37 34.21ZM58.8 36.82L58.3321 37.7038L59.496 38.32L59.777 37.0334L58.8 36.82ZM56.79 36.04L56.5544 37.0118L56.5544 37.0118L56.79 36.04ZM50.85 37.21L50.1429 36.5029L50.1353 36.5105L50.85 37.21ZM50.85 45.19L50.128 45.8819L50.1354 45.8896L50.1429 45.8971L50.85 45.19ZM56.79 46.36L56.5544 45.3881L56.5544 45.3881L56.79 46.36ZM58.8 45.58L59.777 45.3666L59.496 44.08L58.3321 44.6962L58.8 45.58ZM59.37 48.19L59.8268 49.0796L60.5111 48.7282L60.347 47.9766L59.37 48.19ZM57.09 49.03L56.8651 48.0556L57.09 49.03ZM54.6 48.3C52.9596 48.3 51.6123 48.0018 50.5229 47.4484L49.6171 49.2316C51.0477 49.9582 52.7204 50.3 54.6 50.3V48.3ZM50.5229 47.4484C49.4335 46.8951 48.6106 46.1116 48.03 45.087L46.29 46.073C47.0694 47.4484 48.1865 48.5049 49.6171 49.2316L50.5229 47.4484ZM48.0395 45.1042C47.4745 44.0598 47.17 42.7709 47.17 41.2H45.17C45.17 43.0291 45.5255 44.6602 46.2805 46.0558L48.0395 45.1042ZM47.17 41.2C47.17 39.6284 47.4748 38.3527 48.0362 37.3319L46.2838 36.3681C45.5252 37.7473 45.17 39.3716 45.17 41.2H47.17ZM48.0335 37.3369C48.6154 36.2928 49.438 35.5026 50.5229 34.9516L49.6171 33.1684C48.182 33.8974 47.0646 34.9672 46.2865 36.3631L48.0335 37.3369ZM50.5229 34.9516C51.6123 34.3982 52.9596 34.1 54.6 34.1V32.1C52.7204 32.1 51.0477 32.4418 49.6171 33.1684L50.5229 34.9516ZM54.6 34.1C55.4117 34.1 56.1658 34.183 56.8651 34.3444L57.3149 32.3956C56.4542 32.197 55.5483 32.1 54.6 32.1V34.1ZM56.8891 34.3496C57.5679 34.4888 58.2358 34.7336 58.8945 35.0897L59.8455 33.3303C59.0243 32.8864 58.1721 32.5712 57.2909 32.3904L56.8891 34.3496ZM58.393 33.9966L57.823 36.6066L59.777 37.0334L60.347 34.4234L58.393 33.9966ZM59.2679 35.9362C58.524 35.5424 57.7763 35.2501 57.0256 35.0681L56.5544 37.0118C57.1237 37.1499 57.716 37.3776 58.3321 37.7038L59.2679 35.9362ZM57.0256 35.0681C56.2907 34.89 55.5516 34.8 54.81 34.8V36.8C55.3884 36.8 55.9693 36.87 56.5544 37.0118L57.0256 35.0681ZM54.81 34.8C52.9223 34.8 51.3189 35.3269 50.1429 36.5029L51.5571 37.9171C52.2611 37.2131 53.2977 36.8 54.81 36.8V34.8ZM50.1353 36.5105C48.9814 37.6896 48.47 39.3019 48.47 41.2H50.47C50.47 39.6581 50.8786 38.6104 51.5647 37.9095L50.1353 36.5105ZM48.47 41.2C48.47 43.0831 48.9838 44.688 50.128 45.8819L51.572 44.4981C50.8762 43.772 50.47 42.7169 50.47 41.2H48.47ZM50.1429 45.8971C51.3189 47.0731 52.9223 47.6 54.81 47.6V45.6C53.2977 45.6 52.2611 45.1869 51.5571 44.4829L50.1429 45.8971ZM54.81 47.6C55.5516 47.6 56.2907 47.51 57.0256 47.3318L56.5544 45.3881C55.9693 45.53 55.3884 45.6 54.81 45.6V47.6ZM57.0256 47.3318C57.7763 47.1499 58.524 46.8576 59.2679 46.4638L58.3321 44.6962C57.716 45.0224 57.1237 45.2501 56.5544 45.3881L57.0256 47.3318ZM57.823 45.7934L58.393 48.4034L60.347 47.9766L59.777 45.3666L57.823 45.7934ZM58.9132 47.3004C58.2438 47.6442 57.5615 47.8949 56.8651 48.0556L57.3149 50.0044C58.1785 49.8051 59.0162 49.4958 59.8268 49.0796L58.9132 47.3004ZM56.8651 48.0556C56.1658 48.217 55.4117 48.3 54.6 48.3V50.3C55.5483 50.3 56.4542 50.203 57.3149 50.0044L56.8651 48.0556Z" fill="#3F98E1"/>
<path d="M10.65 24.3C9.59 24.3 8.61 24.11 7.71 23.73C6.81 23.35 6.07 22.82 5.49 22.14H5.43L5.4 24H2.31V2.1H5.55V10.26H5.61C6.17 9.56 6.89 9.03 7.77 8.67C8.65 8.29 9.61 8.1 10.65 8.1C12.73 8.1 14.36 8.82 15.54 10.26C16.72 11.68 17.31 13.66 17.31 16.2C17.31 18.74 16.72 20.73 15.54 22.17C14.36 23.59 12.73 24.3 10.65 24.3ZM9.9 21.6C11.26 21.6 12.3 21.13 13.02 20.19C13.76 19.25 14.13 17.92 14.13 16.2C14.13 14.48 13.76 13.15 13.02 12.21C12.3 11.27 11.26 10.8 9.9 10.8C9.08 10.8 8.34 10.97 7.68 11.31C7.02 11.65 6.5 12.12 6.12 12.72C5.74 13.3 5.55 13.97 5.55 14.73V17.67C5.55 18.41 5.74 19.08 6.12 19.68C6.5 20.28 7.02 20.75 7.68 21.09C8.34 21.43 9.08 21.6 9.9 21.6Z" fill="white"/>
<path d="M7.71 23.73L7.32103 24.6512L7.32103 24.6512L7.71 23.73ZM5.49 22.14L6.25083 21.4911L5.95141 21.14H5.49V22.14ZM5.43 22.14V21.14H4.446L4.43013 22.1239L5.43 22.14ZM5.4 24V25H6.384L6.39987 24.0161L5.4 24ZM2.31 24H1.31V25H2.31V24ZM2.31 2.1V1.1H1.31V2.1H2.31ZM5.55 2.1H6.55V1.1H5.55V2.1ZM5.55 10.26H4.55V11.26H5.55V10.26ZM5.61 10.26V11.26H6.09063L6.39087 10.8847L5.61 10.26ZM7.77 8.67L8.14863 9.59555L8.15757 9.59189L8.16644 9.58806L7.77 8.67ZM15.54 10.26L14.7665 10.8938L14.7709 10.8991L15.54 10.26ZM15.54 22.17L16.3091 22.8091L16.3135 22.8038L15.54 22.17ZM13.02 20.19L12.2342 19.5714L12.2261 19.5819L13.02 20.19ZM13.02 12.21L12.2261 12.8181L12.2343 12.8286L13.02 12.21ZM7.68 11.31L8.13796 12.199L8.13796 12.199L7.68 11.31ZM6.12 12.72L6.95646 13.268L6.96069 13.2616L6.96482 13.2551L6.12 12.72ZM6.12 19.68L6.96482 19.1449L6.96482 19.1449L6.12 19.68ZM7.68 21.09L8.13796 20.201L7.68 21.09ZM10.65 23.3C9.71216 23.3 8.86574 23.1325 8.09897 22.8088L7.32103 24.6512C8.35426 25.0875 9.46784 25.3 10.65 25.3V23.3ZM8.09897 22.8088C7.32885 22.4836 6.72062 22.0418 6.25083 21.4911L4.72917 22.7889C5.41938 23.5982 6.29115 24.2164 7.32103 24.6512L8.09897 22.8088ZM5.49 21.14H5.43V23.14H5.49V21.14ZM4.43013 22.1239L4.40013 23.9839L6.39987 24.0161L6.42987 22.1561L4.43013 22.1239ZM5.4 23H2.31V25H5.4V23ZM3.31 24V2.1H1.31V24H3.31ZM2.31 3.1H5.55V1.1H2.31V3.1ZM4.55 2.1V10.26H6.55V2.1H4.55ZM5.55 11.26H5.61V9.26H5.55V11.26ZM6.39087 10.8847C6.8381 10.3257 7.41625 9.89516 8.14863 9.59555L7.39137 7.74445C6.36375 8.16484 5.5019 8.79434 4.82913 9.6353L6.39087 10.8847ZM8.16644 9.58806C8.91094 9.26657 9.73465 9.1 10.65 9.1V7.1C9.48535 7.1 8.38906 7.31343 7.37356 7.75194L8.16644 9.58806ZM10.65 9.1C12.4701 9.1 13.8003 9.71468 14.7665 10.8938L16.3135 9.62618C14.9197 7.92531 12.9899 7.1 10.65 7.1V9.1ZM14.7709 10.8991C15.7541 12.0823 16.31 13.8062 16.31 16.2H18.31C18.31 13.5138 17.6859 11.2777 16.3091 9.62088L14.7709 10.8991ZM16.31 16.2C16.31 18.5928 15.7545 20.3305 14.7665 21.5362L16.3135 22.8038C17.6855 21.1295 18.31 18.8872 18.31 16.2H16.31ZM14.7709 21.5309C13.8064 22.6916 12.4751 23.3 10.65 23.3V25.3C12.9849 25.3 14.9136 24.4884 16.3091 22.8091L14.7709 21.5309ZM9.9 22.6C11.5187 22.6 12.8749 22.024 13.8139 20.7981L12.2261 19.5819C11.7251 20.236 11.0013 20.6 9.9 20.6V22.6ZM13.8057 20.8086C14.7339 19.6296 15.13 18.0489 15.13 16.2H13.13C13.13 17.7911 12.7861 18.8704 12.2343 19.5714L13.8057 20.8086ZM15.13 16.2C15.13 14.3511 14.7339 12.7704 13.8057 11.5914L12.2343 12.8286C12.7861 13.5296 13.13 14.6089 13.13 16.2H15.13ZM13.8139 11.6019C12.8749 10.376 11.5187 9.8 9.9 9.8V11.8C11.0013 11.8 11.7251 12.164 12.2261 12.8181L13.8139 11.6019ZM9.9 9.8C8.93761 9.8 8.03799 10.0007 7.22204 10.421L8.13796 12.199C8.64201 11.9393 9.22239 11.8 9.9 11.8V9.8ZM7.22204 10.421C6.41139 10.8386 5.75477 11.4277 5.27518 12.1849L6.96482 13.2551C7.24524 12.8123 7.62861 12.4614 8.13796 12.199L7.22204 10.421ZM5.28354 12.172C4.78665 12.9304 4.55 13.7948 4.55 14.73H6.55C6.55 14.1452 6.69335 13.6696 6.95646 13.268L5.28354 12.172ZM4.55 14.73V17.67H6.55V14.73H4.55ZM4.55 17.67C4.55 18.5911 4.78944 19.4481 5.27518 20.2151L6.96482 19.1449C6.69056 18.7119 6.55 18.2289 6.55 17.67H4.55ZM5.27518 20.2151C5.75477 20.9723 6.41139 21.5614 7.22204 21.979L8.13796 20.201C7.62861 19.9386 7.24524 19.5877 6.96482 19.1449L5.27518 20.2151ZM7.22204 21.979C8.03799 22.3993 8.93761 22.6 9.9 22.6V20.6C9.22239 20.6 8.64201 20.4607 8.13796 20.201L7.22204 21.979Z" fill="#3F98E1"/>
<path d="M21.97 24.3C20.41 24.3 19.18 23.88 18.28 23.04C17.38 22.18 16.93 21.02 16.93 19.56C16.93 17.74 17.65 16.34 19.09 15.36C20.53 14.36 22.58 13.86 25.24 13.86H27.49C27.49 13.06 27.39 12.44 27.19 12C26.99 11.56 26.64 11.25 26.14 11.07C25.66 10.89 24.99 10.8 24.13 10.8C23.11 10.8 22.07 10.9 21.01 11.1C19.97 11.3 18.98 11.6 18.04 12L17.59 9.33C18.59 8.95 19.69 8.65 20.89 8.43C22.11 8.21 23.33 8.1 24.55 8.1C26.11 8.1 27.33 8.29 28.21 8.67C29.11 9.05 29.75 9.69 30.13 10.59C30.53 11.49 30.73 12.68 30.73 14.16V24H27.64L27.61 22.2H27.55C27.01 22.82 26.21 23.33 25.15 23.73C24.11 24.11 23.05 24.3 21.97 24.3ZM23.11 21.66C23.91 21.66 24.64 21.51 25.3 21.21C25.98 20.91 26.51 20.51 26.89 20.01C27.29 19.51 27.49 18.95 27.49 18.33V16.32H25.69C23.85 16.32 22.47 16.56 21.55 17.04C20.63 17.52 20.17 18.25 20.17 19.23C20.17 19.99 20.42 20.59 20.92 21.03C21.44 21.45 22.17 21.66 23.11 21.66Z" fill="white"/>
<path d="M18.28 23.04L17.5891 23.763L17.5977 23.7711L18.28 23.04ZM19.09 15.36L19.6526 16.1867L19.6604 16.1814L19.09 15.36ZM27.49 13.86V14.86H28.49V13.86H27.49ZM27.19 12L28.1004 11.5862L28.1004 11.5862L27.19 12ZM26.14 11.07L25.7888 12.0064L25.8013 12.0109L26.14 11.07ZM21.01 11.1L20.8246 10.1173L20.8212 10.118L21.01 11.1ZM18.04 12L17.0539 12.1662L17.2647 13.4167L18.4316 12.9202L18.04 12ZM17.59 9.33L17.2348 8.39522L16.4675 8.68679L16.6039 9.49619L17.59 9.33ZM20.89 8.43L20.7125 7.44587L20.7097 7.44639L20.89 8.43ZM28.21 8.67L27.8136 9.58809L27.821 9.59125L28.21 8.67ZM30.13 10.59L29.2088 10.979L29.2124 10.9876L29.2162 10.9961L30.13 10.59ZM30.73 24V25H31.73V24H30.73ZM27.64 24L26.6401 24.0167L26.6565 25H27.64V24ZM27.61 22.2L28.6099 22.1833L28.5935 21.2H27.61V22.2ZM27.55 22.2V21.2H27.0949L26.7959 21.5432L27.55 22.2ZM25.15 23.73L25.4932 24.6693L25.5031 24.6656L25.15 23.73ZM25.3 21.21L24.8963 20.295L24.8862 20.2996L25.3 21.21ZM26.89 20.01L26.1091 19.3853L26.1014 19.395L26.0938 19.4049L26.89 20.01ZM27.49 16.32H28.49V15.32H27.49V16.32ZM21.55 17.04L21.0874 16.1534L21.0874 16.1534L21.55 17.04ZM20.92 21.03L20.2594 21.7807L20.2752 21.7947L20.2917 21.8079L20.92 21.03ZM21.97 23.3C20.5929 23.3 19.6314 22.9334 18.9623 22.3089L17.5977 23.7711C18.7286 24.8266 20.2271 25.3 21.97 25.3V23.3ZM18.9709 22.317C18.3025 21.6784 17.93 20.7982 17.93 19.56H15.93C15.93 21.2418 16.4575 22.6816 17.5891 23.763L18.9709 22.317ZM17.93 19.56C17.93 18.0533 18.5006 16.9708 19.6526 16.1867L18.5274 14.5333C16.7994 15.7092 15.93 17.4267 15.93 19.56H17.93ZM19.6604 16.1814C20.8668 15.3436 22.685 14.86 25.24 14.86V12.86C22.475 12.86 20.1932 13.3764 18.5196 14.5386L19.6604 16.1814ZM25.24 14.86H27.49V12.86H25.24V14.86ZM28.49 13.86C28.49 12.999 28.3859 12.2143 28.1004 11.5862L26.2796 12.4138C26.3941 12.6657 26.49 13.121 26.49 13.86H28.49ZM28.1004 11.5862C27.777 10.8749 27.2047 10.3905 26.4787 10.1291L25.8013 12.0109C26.0753 12.1095 26.203 12.2451 26.2796 12.4138L28.1004 11.5862ZM26.4911 10.1337C25.848 9.89251 25.0399 9.8 24.13 9.8V11.8C24.9401 11.8 25.472 11.8875 25.7889 12.0063L26.4911 10.1337ZM24.13 9.8C23.0443 9.8 21.9422 9.90646 20.8246 10.1173L21.1954 12.0827C22.1978 11.8935 23.1757 11.8 24.13 11.8V9.8ZM20.8212 10.118C19.7141 10.3309 18.656 10.6511 17.6484 11.0798L18.4316 12.9202C19.304 12.5489 20.2259 12.2691 21.1988 12.082L20.8212 10.118ZM19.0261 11.8338L18.5761 9.1638L16.6039 9.49619L17.0539 12.1662L19.0261 11.8338ZM17.9452 10.2648C18.8813 9.90908 19.9218 9.62416 21.0703 9.4136L20.7097 7.44639C19.4582 7.67584 18.2987 7.99092 17.2348 8.39522L17.9452 10.2648ZM21.0675 9.41413C22.2298 9.20452 23.3905 9.1 24.55 9.1V7.1C23.2695 7.1 21.9902 7.21548 20.7125 7.44587L21.0675 9.41413ZM24.55 9.1C26.0488 9.1 27.113 9.28555 27.8136 9.58806L28.6064 7.75194C27.547 7.29445 26.1712 7.1 24.55 7.1V9.1ZM27.821 9.59125C28.481 9.86992 28.9301 10.319 29.2088 10.979L31.0513 10.201C30.5699 9.06105 29.739 8.23008 28.599 7.74875L27.821 9.59125ZM29.2162 10.9961C29.5382 11.7206 29.73 12.756 29.73 14.16H31.73C31.73 12.604 31.5218 11.2594 31.0438 10.1839L29.2162 10.9961ZM29.73 14.16V24H31.73V14.16H29.73ZM30.73 23H27.64V25H30.73V23ZM28.6399 23.9833L28.6099 22.1833L26.6101 22.2167L26.6401 24.0167L28.6399 23.9833ZM27.61 21.2H27.55V23.2H27.61V21.2ZM26.7959 21.5432C26.3977 22.0004 25.7578 22.4318 24.7969 22.7944L25.5031 24.6656C26.6622 24.2282 27.6223 23.6396 28.3041 22.8568L26.7959 21.5432ZM24.8068 22.7907C23.8739 23.1316 22.93 23.3 21.97 23.3V25.3C23.17 25.3 24.3461 25.0884 25.4932 24.6693L24.8068 22.7907ZM23.11 22.66C24.0379 22.66 24.9109 22.4853 25.7138 22.1204L24.8862 20.2996C24.3691 20.5347 23.7821 20.66 23.11 20.66V22.66ZM25.7036 22.1249C26.5101 21.7691 27.1864 21.2727 27.6862 20.6151L26.0938 19.4049C25.8336 19.7473 25.4499 20.0509 24.8964 20.2951L25.7036 22.1249ZM27.6709 20.6347C28.2077 19.9637 28.49 19.185 28.49 18.33H26.49C26.49 18.715 26.3723 19.0563 26.1091 19.3853L27.6709 20.6347ZM28.49 18.33V16.32H26.49V18.33H28.49ZM27.49 15.32H25.69V17.32H27.49V15.32ZM25.69 15.32C23.7956 15.32 22.2217 15.5616 21.0874 16.1534L22.0126 17.9266C22.7183 17.5584 23.9044 17.32 25.69 17.32V15.32ZM21.0874 16.1534C20.5024 16.4586 20.0107 16.872 19.669 17.4144C19.3252 17.9599 19.17 18.5776 19.17 19.23H21.17C21.17 18.9024 21.2448 18.6651 21.361 18.4806C21.4793 18.293 21.6776 18.1014 22.0126 17.9266L21.0874 16.1534ZM19.17 19.23C19.17 20.2324 19.512 21.123 20.2594 21.7807L21.5806 20.2793C21.328 20.057 21.17 19.7476 21.17 19.23H19.17ZM20.2917 21.8079C21.0496 22.4201 22.0327 22.66 23.11 22.66V20.66C22.3073 20.66 21.8304 20.4799 21.5483 20.2521L20.2917 21.8079Z" fill="#3F98E1"/>
<path d="M32.31 24V8.4H35.4L35.43 10.26H35.49C36.11 9.54 36.86 9 37.74 8.64C38.62 8.28 39.64 8.1 40.8 8.1C42.72 8.1 44.13 8.61 45.03 9.63C45.95 10.65 46.41 12.24 46.41 14.4V24H43.17V15C43.17 13.56 42.9 12.5 42.36 11.82C41.84 11.14 41.02 10.8 39.9 10.8C39.06 10.8 38.31 10.97 37.65 11.31C36.99 11.65 36.47 12.11 36.09 12.69C35.73 13.27 35.55 13.94 35.55 14.7V24H32.31Z" fill="white"/>
<path d="M32.31 24H31.31V25H32.31V24ZM32.31 8.4V7.4H31.31V8.4H32.31ZM35.4 8.4L36.3999 8.38387L36.384 7.4H35.4V8.4ZM35.43 10.26L34.4301 10.2761L34.446 11.26H35.43V10.26ZM35.49 10.26V11.26H35.9486L36.2478 10.9125L35.49 10.26ZM45.03 9.63L44.2801 10.2917L44.2874 10.2998L45.03 9.63ZM46.41 24V25H47.41V24H46.41ZM43.17 24H42.17V25H43.17V24ZM42.36 11.82L41.5656 12.4274L41.5712 12.4347L41.5769 12.4419L42.36 11.82ZM37.65 11.31L38.108 12.199L38.108 12.199L37.65 11.31ZM36.09 12.69L35.2535 12.142L35.2468 12.1522L35.2404 12.1626L36.09 12.69ZM35.55 24V25H36.55V24H35.55ZM33.31 24V8.4H31.31V24H33.31ZM32.31 9.4H35.4V7.4H32.31V9.4ZM34.4001 8.41613L34.4301 10.2761L36.4299 10.2439L36.3999 8.38387L34.4001 8.41613ZM35.43 11.26H35.49V9.26H35.43V11.26ZM36.2478 10.9125C36.7647 10.3123 37.3847 9.86579 38.1186 9.56555L37.3614 7.71445C36.3353 8.13421 35.4554 8.76773 34.7322 9.60748L36.2478 10.9125ZM38.1186 9.56555C38.8552 9.26424 39.7421 9.1 40.8 9.1V7.1C39.5379 7.1 38.3848 7.29576 37.3614 7.71445L38.1186 9.56555ZM40.8 9.1C42.555 9.1 43.638 9.5638 44.2802 10.2916L45.7798 8.96838C44.622 7.6562 42.885 7.1 40.8 7.1V9.1ZM44.2874 10.2998C44.9692 11.0557 45.41 12.3522 45.41 14.4H47.41C47.41 12.1278 46.9308 10.2443 45.7726 8.96023L44.2874 10.2998ZM45.41 14.4V24H47.41V14.4H45.41ZM46.41 23H43.17V25H46.41V23ZM44.17 24V15H42.17V24H44.17ZM44.17 15C44.17 13.4707 43.8898 12.1384 43.1431 11.1981L41.5769 12.4419C41.9102 12.8616 42.17 13.6493 42.17 15H44.17ZM43.1544 11.2125C42.3896 10.2125 41.227 9.8 39.9 9.8V11.8C40.813 11.8 41.2904 12.0675 41.5656 12.4274L43.1544 11.2125ZM39.9 9.8C38.9218 9.8 38.0113 9.99896 37.192 10.421L38.108 12.199C38.6087 11.941 39.1982 11.8 39.9 11.8V9.8ZM37.192 10.421C36.3898 10.8343 35.7348 11.4074 35.2535 12.142L36.9265 13.238C37.2052 12.8126 37.5902 12.4657 38.108 12.199L37.192 10.421ZM35.2404 12.1626C34.7712 12.9185 34.55 13.7754 34.55 14.7H36.55C36.55 14.1046 36.6888 13.6215 36.9396 13.2174L35.2404 12.1626ZM34.55 14.7V24H36.55V14.7H34.55ZM35.55 23H32.31V25H35.55V23Z" fill="#3F98E1"/>
<path d="M55.6 24.3C53.84 24.3 52.33 23.98 51.07 23.34C49.81 22.7 48.84 21.78 48.16 20.58C47.5 19.36 47.17 17.9 47.17 16.2C47.17 14.5 47.5 13.05 48.16 11.85C48.84 10.63 49.81 9.7 51.07 9.06C52.33 8.42 53.84 8.1 55.6 8.1C56.48 8.1 57.31 8.19 58.09 8.37C58.87 8.53 59.63 8.81 60.37 9.21L59.8 11.82C59.12 11.46 58.45 11.2 57.79 11.04C57.13 10.88 56.47 10.8 55.81 10.8C54.11 10.8 52.79 11.27 51.85 12.21C50.93 13.15 50.47 14.48 50.47 16.2C50.47 17.9 50.93 19.23 51.85 20.19C52.79 21.13 54.11 21.6 55.81 21.6C56.47 21.6 57.13 21.52 57.79 21.36C58.45 21.2 59.12 20.94 59.8 20.58L60.37 23.19C59.63 23.57 58.87 23.85 58.09 24.03C57.31 24.21 56.48 24.3 55.6 24.3Z" fill="white"/>
<path d="M51.07 23.34L51.5229 22.4484L51.5229 22.4484L51.07 23.34ZM48.16 20.58L47.2805 21.0558L47.2851 21.0645L47.29 21.073L48.16 20.58ZM48.16 11.85L47.2865 11.3631L47.2838 11.3681L48.16 11.85ZM51.07 9.06L51.5229 9.95158L51.5229 9.95158L51.07 9.06ZM58.09 8.37L57.8651 9.34439L57.8771 9.34714L57.8891 9.3496L58.09 8.37ZM60.37 9.21L61.347 9.42336L61.5075 8.68814L60.8455 8.33029L60.37 9.21ZM59.8 11.82L59.3321 12.7038L60.496 13.32L60.777 12.0334L59.8 11.82ZM57.79 11.04L57.5544 12.0118L57.5544 12.0118L57.79 11.04ZM51.85 12.21L51.1429 11.5029L51.1353 11.5105L51.85 12.21ZM51.85 20.19L51.128 20.8819L51.1354 20.8896L51.1429 20.8971L51.85 20.19ZM57.79 21.36L57.5544 20.3881L57.5544 20.3881L57.79 21.36ZM59.8 20.58L60.777 20.3666L60.496 19.08L59.3321 19.6962L59.8 20.58ZM60.37 23.19L60.8268 24.0796L61.5111 23.7282L61.347 22.9766L60.37 23.19ZM58.09 24.03L57.8651 23.0556L58.09 24.03ZM55.6 23.3C53.9596 23.3 52.6123 23.0018 51.5229 22.4484L50.6171 24.2316C52.0477 24.9582 53.7204 25.3 55.6 25.3V23.3ZM51.5229 22.4484C50.4335 21.8951 49.6106 21.1116 49.03 20.087L47.29 21.073C48.0694 22.4484 49.1865 23.5049 50.6171 24.2316L51.5229 22.4484ZM49.0395 20.1042C48.4745 19.0598 48.17 17.7709 48.17 16.2H46.17C46.17 18.0291 46.5255 19.6602 47.2805 21.0558L49.0395 20.1042ZM48.17 16.2C48.17 14.6284 48.4748 13.3527 49.0362 12.3319L47.2838 11.3681C46.5252 12.7473 46.17 14.3716 46.17 16.2H48.17ZM49.0335 12.3369C49.6154 11.2928 50.438 10.5026 51.5229 9.95158L50.6171 8.16842C49.182 8.89736 48.0646 9.96723 47.2865 11.3631L49.0335 12.3369ZM51.5229 9.95158C52.6123 9.3982 53.9596 9.1 55.6 9.1V7.1C53.7204 7.1 52.0477 7.44179 50.6171 8.16842L51.5229 9.95158ZM55.6 9.1C56.4117 9.1 57.1658 9.183 57.8651 9.34439L58.3149 7.39561C57.4542 7.197 56.5483 7.1 55.6 7.1V9.1ZM57.8891 9.3496C58.5679 9.48884 59.2358 9.73363 59.8945 10.0897L60.8455 8.33029C60.0243 7.88636 59.1721 7.57116 58.2909 7.3904L57.8891 9.3496ZM59.393 8.99664L58.823 11.6066L60.777 12.0334L61.347 9.42336L59.393 8.99664ZM60.2679 10.9362C59.524 10.5424 58.7763 10.2501 58.0256 10.0681L57.5544 12.0118C58.1237 12.1499 58.716 12.3776 59.3321 12.7038L60.2679 10.9362ZM58.0256 10.0681C57.2907 9.88999 56.5516 9.8 55.81 9.8V11.8C56.3884 11.8 56.9693 11.87 57.5544 12.0118L58.0256 10.0681ZM55.81 9.8C53.9223 9.8 52.3189 10.3269 51.1429 11.5029L52.5571 12.9171C53.2611 12.2131 54.2977 11.8 55.81 11.8V9.8ZM51.1353 11.5105C49.9814 12.6896 49.47 14.3019 49.47 16.2H51.47C51.47 14.6581 51.8786 13.6104 52.5647 12.9095L51.1353 11.5105ZM49.47 16.2C49.47 18.0831 49.9838 19.688 51.128 20.8819L52.572 19.4981C51.8762 18.772 51.47 17.7169 51.47 16.2H49.47ZM51.1429 20.8971C52.3189 22.0731 53.9223 22.6 55.81 22.6V20.6C54.2977 20.6 53.2611 20.1869 52.5571 19.4829L51.1429 20.8971ZM55.81 22.6C56.5516 22.6 57.2907 22.51 58.0256 22.3318L57.5544 20.3881C56.9693 20.53 56.3884 20.6 55.81 20.6V22.6ZM58.0256 22.3318C58.7763 22.1499 59.524 21.8576 60.2679 21.4638L59.3321 19.6962C58.716 20.0224 58.1237 20.2501 57.5544 20.3881L58.0256 22.3318ZM58.823 20.7934L59.393 23.4034L61.347 22.9766L60.777 20.3666L58.823 20.7934ZM59.9132 22.3004C59.2438 22.6442 58.5615 22.8949 57.8651 23.0556L58.3149 25.0044C59.1785 24.8051 60.0162 24.4958 60.8268 24.0796L59.9132 22.3004ZM57.8651 23.0556C57.1658 23.217 56.4117 23.3 55.6 23.3V25.3C56.5483 25.3 57.4542 25.203 58.3149 25.0044L57.8651 23.0556Z" fill="#3F98E1"/>
<path d="M68.97 24.3C66.49 24.3 64.57 23.6 63.21 22.2C61.85 20.78 61.17 18.78 61.17 16.2C61.17 13.62 61.85 11.63 63.21 10.23C64.57 8.81 66.49 8.1 68.97 8.1C71.45 8.1 73.37 8.81 74.73 10.23C76.09 11.63 76.77 13.62 76.77 16.2C76.77 18.78 76.09 20.78 74.73 22.2C73.37 23.6 71.45 24.3 68.97 24.3ZM68.97 21.6C70.45 21.6 71.58 21.14 72.36 20.22C73.14 19.3 73.53 17.96 73.53 16.2C73.53 14.44 73.14 13.1 72.36 12.18C71.58 11.26 70.45 10.8 68.97 10.8C67.51 10.8 66.38 11.26 65.58 12.18C64.8 13.1 64.41 14.44 64.41 16.2C64.41 17.96 64.8 19.3 65.58 20.22C66.38 21.14 67.51 21.6 68.97 21.6Z" fill="white"/>
<path d="M63.21 22.2L62.4878 22.8917L62.4927 22.8968L63.21 22.2ZM63.21 10.23L63.9273 10.9268L63.9322 10.9217L63.21 10.23ZM74.73 10.23L74.0078 10.9217L74.0127 10.9268L74.73 10.23ZM74.73 22.2L75.4473 22.8968L75.4522 22.8917L74.73 22.2ZM72.36 20.22L73.1228 20.8667L73.1228 20.8667L72.36 20.22ZM65.58 12.18L64.8253 11.5238L64.8172 11.5333L65.58 12.18ZM65.58 20.22L64.8172 20.8667L64.8254 20.8762L65.58 20.22ZM68.97 23.3C66.6831 23.3 65.0512 22.6602 63.9273 21.5032L62.4927 22.8968C64.0888 24.5398 66.2969 25.3 68.97 25.3V23.3ZM63.9322 21.5083C62.8007 20.3269 62.17 18.6053 62.17 16.2H60.17C60.17 18.9547 60.8993 21.2331 62.4878 22.8917L63.9322 21.5083ZM62.17 16.2C62.17 13.7938 62.801 12.0862 63.9273 10.9268L62.4927 9.53321C60.899 11.1738 60.17 13.4462 60.17 16.2H62.17ZM63.9322 10.9217C65.057 9.74724 66.6871 9.1 68.97 9.1V7.1C66.2929 7.1 64.083 7.87276 62.4878 9.53831L63.9322 10.9217ZM68.97 9.1C71.2529 9.1 72.883 9.74724 74.0078 10.9217L75.4522 9.53831C73.857 7.87276 71.6471 7.1 68.97 7.1V9.1ZM74.0127 10.9268C75.139 12.0862 75.77 13.7938 75.77 16.2H77.77C77.77 13.4462 77.041 11.1738 75.4473 9.53321L74.0127 10.9268ZM75.77 16.2C75.77 18.6053 75.1393 20.3269 74.0078 21.5083L75.4522 22.8917C77.0407 21.2331 77.77 18.9547 77.77 16.2H75.77ZM74.0127 21.5032C72.8888 22.6602 71.2569 23.3 68.97 23.3V25.3C71.6431 25.3 73.8512 24.5398 75.4473 22.8968L74.0127 21.5032ZM68.97 22.6C70.671 22.6 72.1102 22.061 73.1228 20.8667L71.5972 19.5733C71.0498 20.219 70.229 20.6 68.97 20.6V22.6ZM73.1228 20.8667C74.1128 19.6989 74.53 18.0907 74.53 16.2H72.53C72.53 17.8293 72.1672 18.9011 71.5972 19.5733L73.1228 20.8667ZM74.53 16.2C74.53 14.3093 74.1128 12.7011 73.1228 11.5333L71.5972 12.8267C72.1672 13.4989 72.53 14.5707 72.53 16.2H74.53ZM73.1228 11.5333C72.1102 10.339 70.671 9.8 68.97 9.8V11.8C70.229 11.8 71.0498 12.181 71.5972 12.8267L73.1228 11.5333ZM68.97 9.8C67.2832 9.8 65.8529 10.3422 64.8254 11.5238L66.3346 12.8362C66.9071 12.1778 67.7368 11.8 68.97 11.8V9.8ZM64.8172 11.5333C63.8272 12.7011 63.41 14.3093 63.41 16.2H65.41C65.41 14.5707 65.7728 13.4989 66.3428 12.8267L64.8172 11.5333ZM63.41 16.2C63.41 18.0907 63.8272 19.6989 64.8172 20.8667L66.3428 19.5733C65.7728 18.9011 65.41 17.8293 65.41 16.2H63.41ZM64.8254 20.8762C65.8529 22.0578 67.2832 22.6 68.97 22.6V20.6C67.7368 20.6 66.9071 20.2222 66.3346 19.5638L64.8254 20.8762Z" fill="#3F98E1"/>
</svg>
