<svg width="45" height="45" viewBox="0 0 45 45" fill="none" xmlns="http://www.w3.org/2000/svg">
<circle cx="22.5" cy="22.5" r="22.5" fill="#051531"/>
<path d="M14.3019 11.5513C14.2734 9.32227 16.0724 7.5 18.3016 7.5H27.5C29.7091 7.5 31.5 9.29086 31.5 11.5V33.9806C31.5 35.2002 30.7574 36.297 29.625 36.75V36.75L26.1623 38.0092C25.7241 38.1685 25.2615 38.25 24.7953 38.25H22.5H19.9924C19.6654 38.25 19.3396 38.2099 19.0223 38.1306L16.5 37.5V37.5C15.3649 37.046 14.6148 35.9532 14.5991 34.7307L14.3019 11.5513Z" fill="#3F98E1"/>
<path d="M41.25 19.6146C41.25 9.19596 32.8553 0.75 22.5 0.75C12.1447 0.75 3.75 9.19596 3.75 19.6146C3.75 29.0304 10.6066 36.8348 19.5703 38.25V25.0676H14.8096V19.6146H19.5703V15.4585C19.5703 10.7305 22.3696 8.11898 26.6525 8.11898C28.7039 8.11898 30.8496 8.48743 30.8496 8.48743V13.1299H28.4853C26.1561 13.1299 25.4297 14.584 25.4297 16.0759V19.6146H30.6299L29.7986 25.0676H25.4297V38.25C34.3934 36.8348 41.25 29.0304 41.25 19.6146Z" fill="#051531"/>
</svg>
