<svg width="60" height="60" viewBox="0 0 60 60" fill="none" xmlns="http://www.w3.org/2000/svg">
<circle cx="30" cy="30" r="30" fill="#051531"/>
<path d="M19.0519 14.0513C19.0234 11.8223 20.8224 10 23.0516 10H38C40.2091 10 42 11.7909 42 14V45.3074C42 46.9336 41.0099 48.396 39.5 49V49L34.6623 50.7592C34.2241 50.9185 33.7615 51 33.2953 51H30H26.4924C26.1654 51 25.8396 50.9599 25.5223 50.8806L22 50V50C20.4987 49.3995 19.4865 47.9461 19.4658 46.3293L19.0519 14.0513Z" fill="#3F98E1"/>
<path d="M55 26.1528C55 12.2613 43.8071 1 30 1C16.1929 1 5 12.2613 5 26.1528C5 38.7073 14.1421 49.113 26.0938 51V33.4235H19.7461V26.1528H26.0938V20.6113C26.0938 14.3074 29.8261 10.8253 35.5366 10.8253C38.2718 10.8253 41.1328 11.3166 41.1328 11.3166V17.5065H37.9804C34.8748 17.5065 33.9062 19.4454 33.9062 21.4345V26.1528H40.8398L39.7314 33.4235H33.9062V51C45.8579 49.113 55 38.7073 55 26.1528Z" fill="#051531"/>
</svg>
