<svg width="45" height="45" viewBox="0 0 45 45" fill="none" xmlns="http://www.w3.org/2000/svg">
<circle cx="22.5" cy="22.5" r="22.5" fill="#051531"/>
<path fill-rule="evenodd" clip-rule="evenodd" d="M22.5 7.5C18.426 7.5 17.916 7.517 16.316 7.59C14.719 7.663 13.628 7.917 12.674 8.288C11.674 8.664 10.767 9.254 10.017 10.018C9.25422 10.7671 8.66386 11.6735 8.287 12.674C7.918 13.628 7.663 14.72 7.59 16.317C7.518 17.916 7.5 18.425 7.5 22.5C7.5 26.575 7.517 27.084 7.59 28.684C7.663 30.281 7.917 31.372 8.288 32.326C8.664 33.326 9.254 34.233 10.018 34.983C10.7672 35.7458 11.6735 36.3361 12.674 36.713C13.628 37.083 14.719 37.337 16.316 37.41C17.916 37.483 18.426 37.5 22.5 37.5C26.574 37.5 27.084 37.483 28.684 37.41C30.281 37.337 31.372 37.083 32.326 36.712C33.326 36.336 34.233 35.746 34.983 34.982C35.7458 34.2329 36.3361 33.3265 36.713 32.326C37.083 31.372 37.337 30.281 37.41 28.684C37.483 27.084 37.5 26.574 37.5 22.5C37.5 18.426 37.483 17.916 37.41 16.316C37.337 14.719 37.083 13.628 36.712 12.674C36.3354 11.6731 35.745 10.7663 34.982 10.017C34.2329 9.25422 33.3265 8.66386 32.326 8.287C31.372 7.918 30.28 7.663 28.683 7.59C27.084 7.518 26.575 7.5 22.5 7.5ZM22.5 10.203C26.505 10.203 26.98 10.218 28.562 10.29C30.024 10.357 30.818 10.6 31.347 10.807C32.047 11.078 32.547 11.404 33.072 11.928C33.597 12.453 33.922 12.953 34.193 13.653C34.399 14.182 34.643 14.976 34.71 16.438C34.782 18.02 34.797 18.495 34.797 22.5C34.797 26.505 34.782 26.98 34.71 28.562C34.643 30.024 34.4 30.818 34.193 31.347C33.9529 31.9985 33.5699 32.588 33.072 33.072C32.5881 33.57 31.9986 33.9531 31.347 34.193C30.818 34.399 30.024 34.643 28.562 34.71C26.98 34.782 26.506 34.797 22.5 34.797C18.494 34.797 18.02 34.782 16.438 34.71C14.976 34.643 14.182 34.4 13.653 34.193C13.0015 33.9529 12.412 33.5699 11.928 33.072C11.4302 32.588 11.0471 31.9985 10.807 31.347C10.601 30.818 10.357 30.024 10.29 28.562C10.218 26.98 10.203 26.505 10.203 22.5C10.203 18.495 10.218 18.02 10.29 16.438C10.357 14.976 10.6 14.182 10.807 13.653C11.078 12.953 11.404 12.453 11.928 11.928C12.4119 11.43 13.0014 11.047 13.653 10.807C14.182 10.601 14.976 10.357 16.438 10.29C18.02 10.218 18.495 10.203 22.5 10.203Z" fill="#3F98E1"/>
<path fill-rule="evenodd" clip-rule="evenodd" d="M22.5 27.505C21.8428 27.505 21.1919 27.3755 20.5847 27.124C19.9775 26.8725 19.4257 26.5038 18.961 26.0391C18.4962 25.5743 18.1275 25.0226 17.876 24.4153C17.6245 23.8081 17.495 23.1573 17.495 22.5C17.495 21.8427 17.6245 21.1919 17.876 20.5847C18.1275 19.9774 18.4962 19.4257 18.961 18.9609C19.4257 18.4962 19.9775 18.1275 20.5847 17.876C21.1919 17.6245 21.8428 17.495 22.5 17.495C23.8274 17.495 25.1005 18.0223 26.0391 18.9609C26.9777 19.8995 27.505 21.1726 27.505 22.5C27.505 23.8274 26.9777 25.1005 26.0391 26.0391C25.1005 26.9777 23.8274 27.505 22.5 27.505ZM22.5 14.79C20.4552 14.79 18.4941 15.6023 17.0482 17.0482C15.6023 18.4941 14.79 20.4552 14.79 22.5C14.79 24.5448 15.6023 26.5059 17.0482 27.9518C18.4941 29.3977 20.4552 30.21 22.5 30.21C24.5448 30.21 26.5059 29.3977 27.9518 27.9518C29.3977 26.5059 30.21 24.5448 30.21 22.5C30.21 20.4552 29.3977 18.4941 27.9518 17.0482C26.5059 15.6023 24.5448 14.79 22.5 14.79ZM32.453 14.65C32.453 15.1334 32.261 15.5969 31.9192 15.9387C31.5774 16.2805 31.1139 16.4725 30.6305 16.4725C30.1472 16.4725 29.6836 16.2805 29.3418 15.9387C29 15.5969 28.808 15.1334 28.808 14.65C28.808 14.1666 29 13.7031 29.3418 13.3613C29.6836 13.0195 30.1472 12.8275 30.6305 12.8275C31.1139 12.8275 31.5774 13.0195 31.9192 13.3613C32.261 13.7031 32.453 14.1666 32.453 14.65Z" fill="#3F98E1"/>
</svg>
