<svg width="60" height="60" viewBox="0 0 60 60" fill="none" xmlns="http://www.w3.org/2000/svg">
<circle cx="30" cy="30" r="30" fill="#051531"/>
<path fill-rule="evenodd" clip-rule="evenodd" d="M30 10C24.568 10 23.888 10.0227 21.7547 10.12C19.6253 10.2173 18.1707 10.556 16.8987 11.0507C15.5653 11.552 14.356 12.3387 13.356 13.3573C12.339 14.3562 11.5518 15.5647 11.0493 16.8987C10.5573 18.1707 10.2173 19.6267 10.12 21.756C10.024 23.888 10 24.5667 10 30C10 35.4333 10.0227 36.112 10.12 38.2453C10.2173 40.3747 10.556 41.8293 11.0507 43.1013C11.552 44.4347 12.3387 45.644 13.3573 46.644C14.3562 47.661 15.5647 48.4482 16.8987 48.9507C18.1707 49.444 19.6253 49.7827 21.7547 49.88C23.888 49.9773 24.568 50 30 50C35.432 50 36.112 49.9773 38.2453 49.88C40.3747 49.7827 41.8293 49.444 43.1013 48.9493C44.4347 48.448 45.644 47.6613 46.644 46.6427C47.661 45.6438 48.4482 44.4353 48.9507 43.1013C49.444 41.8293 49.7827 40.3747 49.88 38.2453C49.9773 36.112 50 35.432 50 30C50 24.568 49.9773 23.888 49.88 21.7547C49.7827 19.6253 49.444 18.1707 48.9493 16.8987C48.4472 15.5641 47.66 14.3551 46.6427 13.356C45.6438 12.339 44.4353 11.5518 43.1013 11.0493C41.8293 10.5573 40.3733 10.2173 38.244 10.12C36.112 10.024 35.4333 10 30 10ZM30 13.604C35.34 13.604 35.9733 13.624 38.0827 13.72C40.032 13.8093 41.0907 14.1333 41.796 14.4093C42.7293 14.7707 43.396 15.2053 44.096 15.904C44.796 16.604 45.2293 17.2707 45.5907 18.204C45.8653 18.9093 46.1907 19.968 46.28 21.9173C46.376 24.0267 46.396 24.66 46.396 30C46.396 35.34 46.376 35.9733 46.28 38.0827C46.1907 40.032 45.8667 41.0907 45.5907 41.796C45.2706 42.6647 44.7598 43.4507 44.096 44.096C43.4508 44.76 42.6648 45.2707 41.796 45.5907C41.0907 45.8653 40.032 46.1907 38.0827 46.28C35.9733 46.376 35.3413 46.396 30 46.396C24.6587 46.396 24.0267 46.376 21.9173 46.28C19.968 46.1907 18.9093 45.8667 18.204 45.5907C17.3353 45.2706 16.5493 44.7598 15.904 44.096C15.2402 43.4506 14.7295 42.6647 14.4093 41.796C14.1347 41.0907 13.8093 40.032 13.72 38.0827C13.624 35.9733 13.604 35.34 13.604 30C13.604 24.66 13.624 24.0267 13.72 21.9173C13.8093 19.968 14.1333 18.9093 14.4093 18.204C14.7707 17.2707 15.2053 16.604 15.904 15.904C16.5493 15.2401 17.3352 14.7293 18.204 14.4093C18.9093 14.1347 19.968 13.8093 21.9173 13.72C24.0267 13.624 24.66 13.604 30 13.604Z" fill="#3F98E1"/>
<path fill-rule="evenodd" clip-rule="evenodd" d="M30 36.6733C29.1237 36.6733 28.2559 36.5007 27.4463 36.1654C26.6366 35.83 25.9009 35.3384 25.2813 34.7188C24.6616 34.0991 24.17 33.3634 23.8347 32.5538C23.4993 31.7441 23.3267 30.8764 23.3267 30C23.3267 29.1236 23.4993 28.2559 23.8347 27.4462C24.17 26.6366 24.6616 25.9009 25.2813 25.2812C25.9009 24.6616 26.6366 24.17 27.4463 23.8346C28.2559 23.4993 29.1237 23.3267 30 23.3267C31.7699 23.3267 33.4673 24.0297 34.7188 25.2812C35.9703 26.5327 36.6734 28.2301 36.6734 30C36.6734 31.7699 35.9703 33.4673 34.7188 34.7188C33.4673 35.9703 31.7699 36.6733 30 36.6733ZM30 19.72C27.2736 19.72 24.6588 20.8031 22.731 22.7309C20.8031 24.6588 19.72 27.2736 19.72 30C19.72 32.7264 20.8031 35.3412 22.731 37.2691C24.6588 39.1969 27.2736 40.28 30 40.28C32.7265 40.28 35.3412 39.1969 37.2691 37.2691C39.197 35.3412 40.28 32.7264 40.28 30C40.28 27.2736 39.197 24.6588 37.2691 22.7309C35.3412 20.8031 32.7265 19.72 30 19.72ZM43.2707 19.5333C43.2707 20.1778 43.0147 20.7959 42.559 21.2516C42.1033 21.7073 41.4852 21.9633 40.8407 21.9633C40.1962 21.9633 39.5781 21.7073 39.1224 21.2516C38.6667 20.7959 38.4107 20.1778 38.4107 19.5333C38.4107 18.8889 38.6667 18.2708 39.1224 17.8151C39.5781 17.3594 40.1962 17.1033 40.8407 17.1033C41.4852 17.1033 42.1033 17.3594 42.559 17.8151C43.0147 18.2708 43.2707 18.8889 43.2707 19.5333Z" fill="#3F98E1"/>
</svg>
