<svg width="45" height="45" viewBox="0 0 45 45" fill="none" xmlns="http://www.w3.org/2000/svg">
<circle cx="22.5" cy="22.5" r="22.5" fill="#051531"/>
<path d="M37.5 13.3869C36.3968 13.8758 35.2116 14.2061 33.9657 14.3554C35.2367 13.5943 36.2118 12.3867 36.6716 10.9492C35.4825 11.6548 34.1652 12.1674 32.7634 12.4422C31.6403 11.2478 30.0416 10.5 28.2712 10.5C24.8729 10.5 22.1168 13.2561 22.1168 16.657C22.1168 17.1379 22.1723 17.6056 22.2754 18.0575C17.1582 17.7998 12.6251 15.3489 9.58888 11.6257C9.06038 12.5373 8.7565 13.5943 8.7565 14.72C8.7565 16.8551 9.84387 18.7406 11.4941 19.8438C10.4847 19.8108 9.53603 19.5346 8.70629 19.0735V19.1528C8.70629 22.1348 10.8269 24.6227 13.6438 25.1882C13.1258 25.3282 12.5828 25.4022 12.0226 25.4022C11.6262 25.4022 11.2391 25.3652 10.8639 25.2939C11.6474 27.7382 13.9199 29.5192 16.6139 29.5668C14.5065 31.2183 11.8522 32.2026 8.96922 32.2026C8.47243 32.2026 7.98225 32.1736 7.5 32.1168C10.2244 33.8648 13.4588 34.8821 16.9336 34.8821C28.2566 34.8821 34.4466 25.504 34.4466 17.3704C34.4466 17.1062 34.44 16.8393 34.4281 16.575C35.6305 15.7057 36.6742 14.6236 37.4974 13.3909L37.5 13.3869Z" fill="#3F98E1"/>
</svg>
