<svg width="60" height="60" viewBox="0 0 60 60" fill="none" xmlns="http://www.w3.org/2000/svg">
<circle cx="30" cy="30" r="30" fill="#051531"/>
<path d="M50 17.8492C48.529 18.501 46.9488 18.9414 45.2876 19.1405C46.9823 18.1258 48.2824 16.5156 48.8954 14.599C47.31 15.5397 45.5536 16.2232 43.6845 16.5896C42.1871 14.9971 40.0555 14 37.6949 14C33.1639 14 29.4891 17.6748 29.4891 22.2093C29.4891 22.8505 29.5631 23.4741 29.7005 24.0766C22.8777 23.7331 16.8334 20.4653 12.7852 15.5009C12.0805 16.7165 11.6753 18.1258 11.6753 19.6267C11.6753 22.4735 13.1252 24.9874 15.3255 26.4584C13.9796 26.4143 12.7147 26.0462 11.6084 25.4313V25.537C11.6084 29.5131 14.4358 32.8303 18.1917 33.5843C17.5011 33.771 16.7771 33.8696 16.0301 33.8696C15.5016 33.8696 14.9855 33.8203 14.4852 33.7252C15.5298 36.9842 18.5599 39.3589 22.1519 39.4224C19.342 41.6244 15.8029 42.9368 11.959 42.9368C11.2966 42.9368 10.643 42.8981 10 42.8223C13.6325 45.153 17.945 46.5095 22.5782 46.5095C37.6755 46.5095 45.9288 34.0053 45.9288 23.1606C45.9288 22.8082 45.92 22.4524 45.9042 22.1001C47.5073 20.9409 48.899 19.4981 49.9965 17.8545L50 17.8492Z" fill="#3F98E1"/>
</svg>
