<svg width="45" height="45" viewBox="0 0 45 45" fill="none" xmlns="http://www.w3.org/2000/svg">
<circle cx="22.5" cy="22.5" r="22.5" fill="#051531"/>
<path fill-rule="evenodd" clip-rule="evenodd" d="M34.2204 12.6273C35.5119 12.973 36.527 13.988 36.8727 15.2796C37.4975 17.6182 37.5 22.5005 37.5 22.5005C37.5 22.5005 37.5 27.3828 36.8727 29.7215C36.527 31.013 35.5119 32.028 34.2204 32.3737C31.8818 33.001 22.4999 33.001 22.4999 33.001C22.4999 33.001 13.1182 33.001 10.7795 32.3737C9.48798 32.028 8.473 31.013 8.12726 29.7215C7.5 27.3828 7.5 22.5005 7.5 22.5005C7.5 22.5005 7.5 17.6182 8.12726 15.2796C8.473 13.988 9.48798 12.973 10.7795 12.6273C13.1182 12 22.4999 12 22.4999 12C22.4999 12 31.8818 12 34.2204 12.6273ZM27.291 22.5009L19.4971 27.0004V18.0014L27.291 22.5009Z" fill="#3F98E1"/>
</svg>
