<svg width="60" height="60" viewBox="0 0 60 60" fill="none" xmlns="http://www.w3.org/2000/svg">
<circle cx="30" cy="30" r="30" fill="#051531"/>
<path fill-rule="evenodd" clip-rule="evenodd" d="M45.6272 16.8364C47.3493 17.2973 48.7027 18.6506 49.1636 20.3727C49.9966 23.4909 50 30.0007 50 30.0007C50 30.0007 50 36.5104 49.1636 39.6286C48.7027 41.3507 47.3493 42.704 45.6272 43.1649C42.5091 44.0013 29.9999 44.0013 29.9999 44.0013C29.9999 44.0013 17.4909 44.0013 14.3727 43.1649C12.6506 42.704 11.2973 41.3507 10.8364 39.6286C10 36.5104 10 30.0007 10 30.0007C10 30.0007 10 23.4909 10.8364 20.3727C11.2973 18.6506 12.6506 17.2973 14.3727 16.8364C17.4909 16 29.9999 16 29.9999 16C29.9999 16 42.5091 16 45.6272 16.8364ZM36.388 30.0012L25.9962 36.0005V24.0018L36.388 30.0012Z" fill="#3F98E1"/>
</svg>
